<?xml version="1.0" encoding="utf-8"?>
<!-- Generated by IcoMoon.io -->
<!DOCTYPE svg PUBLIC "-//W3C//DTD SVG 1.1//EN" "http://www.w3.org/Graphics/SVG/1.1/DTD/svg11.dtd">
<svg version="1.1" xmlns="http://www.w3.org/2000/svg" xmlns:xlink="http://www.w3.org/1999/xlink" width="32" height="32" viewBox="0 0 32 32">
<svg xmlns="http://www.w3.org/2000/svg" id="icon_chengjiao" width="32" height="32" viewBox="0 0 32 32" x="0" y="0">
<path fill="#fdeee1" d="M30 16c0 7.732-6.268 14-14 14s-14-6.268-14-14c0-7.732 6.268-14 14-14s14 6.268 14 14z"/>
<path fill="#ff7326" d="M20.875 18.672l-0.111-0.486c0.719-0.166 1.108-0.275 1.111-0.276l0.137 0.48c0 0-0.399 0.113-1.137 0.282z"/>
<path fill="#ff7326" d="M18.569 15.74c-0.762 0-1.33-0.211-1.69-0.629-0.225-0.261-0.327-0.558-0.368-0.819-0.59 0.294-1.514 0.731-2.064 0.868-0.974 0.242-1.953-0.486-2.135-1.095-0.131-0.432 0.333-0.915 1.999-2.348 0.383-0.33 0.78-0.67 0.88-0.793 0.534-0.651 2.642-0.723 3.514-0.393 0.868 0.329 3.202 2.088 3.466 2.288l-0.453 0.598c-0.691-0.524-2.629-1.938-3.278-2.185-0.777-0.292-2.441-0.097-2.668 0.167-0.135 0.165-0.441 0.43-0.971 0.886-0.542 0.466-1.521 1.309-1.734 1.639 0.149 0.239 0.666 0.639 1.2 0.508 0.622-0.155 1.975-0.835 2.443-1.085l0.715-0.38-0.173 0.792c0 0.002-0.103 0.522 0.199 0.867 0.307 0.35 0.916 0.386 1.376 0.356l0.051 0.748c-0.107 0.006-0.209 0.010-0.309 0.010z"/>
<path fill="#ff7326" d="M19.569 19.921c-1.217 0-4.368-1.644-4.879-2.034l0.456-0.596c0.941 0.72 3.679 1.835 4.339 1.912 0.096-0.146 0.119-0.268 0.119-0.269l0.742 0.105c-0.006 0.040-0.064 0.398-0.367 0.75-0.078 0.092-0.22 0.132-0.41 0.132z"/>
<path fill="#ff7326" d="M16.37 21.653c-1.272 0-3.686-0.646-6.716-2.633l0.411-0.627c3.519 2.307 6.040 2.66 6.717 2.469 0.495-0.141 0.586-0.287 0.586-0.289l0.734 0.091c0 0.182-0.108 0.634-1.115 0.919-0.158 0.046-0.365 0.070-0.617 0.070z"/>
<path fill="#ff7326" d="M18.489 20.809c-1.116 0-3.208-0.703-4.29-1.201l0.313-0.682c1.739 0.8 3.845 1.266 4.191 1.114 0.3-0.127 0.338-0.254 0.338-0.255l0.747 0.041c0 0.095-0.038 0.585-0.791 0.904-0.127 0.054-0.301 0.079-0.508 0.079z"/>
<path fill="#ff7326" d="M20.309 19.146c-1.050 0-3.1-1.378-4.775-2.655l0.455-0.597c1.827 1.394 3.693 2.5 4.241 2.528-0.14-0.448-1.353-1.687-2.733-2.773l0.463-0.59c0.697 0.548 2.975 2.413 3.032 3.398 0.015 0.257-0.095 0.423-0.188 0.517-0.12 0.118-0.288 0.172-0.495 0.172z"/>
<path fill="#ff7326" d="M10.833 13.47l-0.262-0.703c0.056-0.021 1.391-0.513 2.719-0.298l-0.119 0.74c-1.13-0.182-2.325 0.256-2.338 0.261z"/>
<path fill="#ff7326" d="M23.275 19.091v0c-0.808 0-1.364-0.424-1.388-0.441l-0.146-0.113v-5.282c-0.066-0.434 0.009-0.809 0.227-1.059 0.126-0.146 0.365-0.32 0.783-0.32 0.663 0 1.441 0.438 1.528 0.488l0.161 0.093 0.023 0.185c0.345 2.729 0.533 6.048-0.53 6.356-0.214 0.061-0.437 0.093-0.658 0.093zM22.492 18.144c0.159 0.083 0.439 0.197 0.783 0.197v0c0.15 0 0.302-0.022 0.45-0.065 0.321-0.274 0.338-2.705 0.019-5.348-0.256-0.127-0.681-0.303-0.992-0.303-0.074 0-0.173 0.011-0.217 0.062-0.024 0.028-0.1 0.148-0.047 0.515l0.004 4.942z"/>
<path fill="#ff7326" d="M9.333 19.569c-0.001 0 0 0 0 0-0.198 0-0.403-0.060-0.619-0.123-0.106-0.031-0.221-0.065-0.345-0.094-0.304-0.071-0.544-0.238-0.696-0.483-0.283-0.457-0.161-1.023-0.146-1.086 0.181-1.763 0.547-4.863 0.881-5.295 0.253-0.327 0.661-0.493 1.213-0.493 0.598 0 1.18 0.2 1.205 0.209l0.292 0.102-0.044 0.306c0 0-0.68 4.765-0.843 5.871-0.044 0.296-0.16 1.086-0.898 1.086zM9.621 12.745c-0.211 0-0.491 0.035-0.62 0.201-0.166 0.307-0.508 2.769-0.736 4.962-0.029 0.141-0.116 0.622 0.274 0.714 0.137 0.032 0.265 0.069 0.384 0.104 0.164 0.048 0.318 0.093 0.409 0.093v0c0.018 0 0.025-0.002 0.027-0.003-0.001 0 0.075-0.074 0.128-0.443 0.137-0.931 0.641-4.45 0.796-5.542-0.18-0.043-0.423-0.086-0.662-0.086z"/>
</svg>
