<?xml version="1.0" encoding="utf-8"?>
<!-- Generated by IcoMoon.io -->
<!DOCTYPE svg PUBLIC "-//W3C//DTD SVG 1.1//EN" "http://www.w3.org/Graphics/SVG/1.1/DTD/svg11.dtd">
<svg version="1.1" xmlns="http://www.w3.org/2000/svg" xmlns:xlink="http://www.w3.org/1999/xlink" width="32" height="32" viewBox="0 0 32 32"><svg xmlns="http://www.w3.org/2000/svg" id="icon_zufang" width="32" height="32" viewBox="0 0 32 32" x="0" y="0">
<path fill="#649cf1" d="M16 2c7.732 0 14 6.268 14 14s-6.268 14-14 14-14-6.268-14-14 6.268-14 14-14z"/>
<path fill="#fff" d="M20.608 13.342c-2.401 0-4.356 1.959-4.356 4.368s1.955 4.367 4.356 4.367c2.402 0 4.355-1.958 4.355-4.367s-1.953-4.368-4.355-4.368z"/>
<path fill="#fff" d="M20.608 13.342v0z"/>
<path fill="#649cf1" d="M20.608 21.158v0c-1.896 0-3.439-1.547-3.439-3.448s1.543-3.448 3.439-3.448c1.897 0 3.438 1.546 3.438 3.448s-1.541 3.448-3.438 3.448z"/>
<path fill="#fff" d="M12.025 10.528v-0.223c0-0.34-0.106-0.445-0.447-0.445h-1.341c-0.342 0-0.447 0.328-0.447 0.668v2.227l2.236-1.781v-0.446h-0.001zM16.715 21.176c-0.848-0.955-1.379-2.2-1.379-3.58 0-2.885 2.259-5.22 5.097-5.375l-4.153-3.29c-0.31-0.256-0.763-0.256-1.072 0l-6.692 5.435c-0.346 0.292-0.389 0.809-0.096 1.155s0.823 0.288 1.163-0.002l0.196-0.296v6.741c0 0.292 0.23 0.52 0.51 0.52l7.786-0.001c-0.608-0.347-1.027-0.786-1.36-1.307zM14.185 18.625h-1.831v-1.839h1.831v1.839z"/>
<path fill="#fff" d="M19.759 15.972c0.516 0 0.935 0.42 0.935 0.935 0 0.516-0.42 0.935-0.935 0.935-0.516 0-0.935-0.42-0.935-0.935s0.42-0.935 0.935-0.935zM19.759 15.222c-0.931 0-1.685 0.754-1.685 1.685s0.754 1.685 1.685 1.685 1.685-0.755 1.685-1.685c0-0.93-0.754-1.685-1.685-1.685v0z"/>
<path fill="#fff" d="M20.913 17.616l1.606 1.69c0.148 0.156 0.145 0.4-0.006 0.545s-0.394 0.138-0.541-0.018l-1.606-1.69c-0.148-0.156-0.145-0.4 0.006-0.545s0.393-0.138 0.541 0.018z"/>
<path fill="#fff" d="M21.606 18.474l0.337-0.394c0.14-0.163 0.385-0.183 0.548-0.043s0.183 0.385 0.043 0.548l-0.337 0.394c-0.14 0.163-0.385 0.183-0.548 0.043-0.164-0.139-0.183-0.385-0.043-0.548z"/>
</svg>
