<?xml version="1.0" encoding="utf-8"?>
<!-- Generated by IcoMoon.io -->
<!DOCTYPE svg PUBLIC "-//W3C//DTD SVG 1.1//EN" "http://www.w3.org/Graphics/SVG/1.1/DTD/svg11.dtd">
<svg version="1.1" xmlns="http://www.w3.org/2000/svg" xmlns:xlink="http://www.w3.org/1999/xlink" width="32" height="32" viewBox="0 0 32 32">
<svg xmlns="http://www.w3.org/2000/svg" id="icon_gujia" width="32" height="32" viewBox="0 0 32 32" x="0" y="0">
<path fill="#ccefe0" d="M16 1.929c7.296 0 13.211 5.915 13.211 13.211s-5.915 13.211-13.211 13.211c-7.296 0-13.211-5.915-13.211-13.211 0-7.297 5.915-13.211 13.211-13.211z"/>
<path fill="#394043" d="M16 3.651c6.334 0 11.487 5.153 11.487 11.487s-5.153 11.487-11.487 11.487c-6.334 0-11.487-5.153-11.487-11.487s5.153-11.487 11.487-11.487zM16 1.929c-7.296 0-13.211 5.915-13.211 13.211s5.915 13.211 13.211 13.211c7.296 0 13.211-5.915 13.211-13.211 0-7.297-5.915-13.211-13.211-13.211v0z"/>
<path fill="#394043" d="M14.322 14.954l7.351-10.798 1.218 1.218-7.35 10.798-1.219-1.218z"/>
<path fill="#fff" d="M7.587 2.8c-3.936 2.689-6.521 7.212-6.521 12.338 0 8.247 6.686 14.933 14.933 14.933s14.933-6.686 14.933-14.933h-14.933l-8.413-12.338z"/>
<path fill="#394043" d="M7.199 5.289l7.89 11.572h14.010c-0.847 6.474-6.398 11.488-13.099 11.488-7.284 0-13.211-5.926-13.211-13.211 0-3.787 1.622-7.358 4.41-9.85zM7.587 2.8c-3.936 2.689-6.521 7.212-6.521 12.338 0 8.247 6.686 14.933 14.933 14.933s14.933-6.686 14.933-14.933h-14.933l-8.413-12.338z"/>
</svg>
