<?xml version="1.0" encoding="utf-8"?>
<!-- Generated by IcoMoon.io -->
<!DOCTYPE svg PUBLIC "-//W3C//DTD SVG 1.1//EN" "http://www.w3.org/Graphics/SVG/1.1/DTD/svg11.dtd">
<svg version="1.1" xmlns="http://www.w3.org/2000/svg" xmlns:xlink="http://www.w3.org/1999/xlink" width="32" height="32" viewBox="0 0 32 32">
<svg xmlns="http://www.w3.org/2000/svg" id="icon_maifang" width="32" height="32" viewBox="0 0 32 32" x="0" y="0">
<path fill="#ffbb40" d="M30 16c0 7.732-6.268 14-14 14s-14-6.268-14-14c0-7.732 6.268-14 14-14s14 6.268 14 14z"/>
<path fill="#fff" d="M20.893 13.391c-2.407 0-4.367 1.952-4.367 4.353s1.96 4.352 4.367 4.352c2.408 0 4.367-1.952 4.367-4.352 0-2.401-1.959-4.353-4.367-4.353v0zM20.893 21.181c-1.901 0-3.448-1.541-3.448-3.437 0-1.895 1.547-3.436 3.448-3.436 1.902 0 3.448 1.541 3.448 3.436-0.001 1.895-1.546 3.437-3.448 3.437v0zM20.796 20.031c-0.236 0-0.428-0.172-0.428-0.384v-0.524h-0.977c-0.232 0-0.419-0.178-0.419-0.396 0-0.212 0.188-0.384 0.419-0.384h0.977v-0.239h-0.977c-0.239 0-0.419-0.17-0.419-0.396 0-0.208 0.188-0.378 0.419-0.378h0.648l-0.839-1.337c-0.055-0.075-0.075-0.181-0.046-0.279 0.032-0.112 0.122-0.205 0.246-0.256 0.057-0.022 0.114-0.032 0.172-0.032 0.151 0 0.292 0.068 0.368 0.179l0.868 1.381 0.858-1.38c0.077-0.119 0.216-0.191 0.366-0.191 0.067 0 0.133 0.015 0.191 0.045 0.108 0.041 0.189 0.121 0.225 0.223s0.022 0.215-0.038 0.308l-0.090 0.14-0.748 1.203h0.635c0.235 0 0.427 0.175 0.427 0.39s-0.187 0.383-0.427 0.383h-0.977v0.239h0.977c0.239 0 0.427 0.174 0.427 0.396 0 0.208-0.195 0.384-0.427 0.384h-0.977v0.524c0 0.213-0.191 0.381-0.434 0.381v0z"/>
<path fill="#ffbb40" d="M21.007 23.517c-3.255 0-5.904-2.64-5.904-5.884s2.649-5.884 5.904-5.884c3.256 0 5.904 2.64 5.904 5.884s-2.648 5.884-5.904 5.884zM21.007 12.749c-2.704 0-4.904 2.191-4.904 4.884s2.2 4.884 4.904 4.884 4.904-2.19 4.904-4.884c0-2.693-2.2-4.884-4.904-4.884z"/>
<path fill="#fff" d="M15.182 17.728c0-2.882 2.266-5.229 5.119-5.388l-4.166-3.28c-0.312-0.256-0.768-0.256-1.079 0l-6.734 5.436c-0.349 0.292-0.392 0.809-0.097 1.155s0.828 0.288 1.17-0.002l0.201-0.079v6.245c0 0.287 0.237 0.781 0.52 0.781h8.066c-0.081-0.045-0.145-0.103-0.222-0.152-1.656-0.926-2.778-2.689-2.778-4.716zM14.020 18.432c0 0.144-0.117 0.26-0.26 0.26h-1.301c-0.144 0-0.26-0.116-0.26-0.26v-1.301c0-0.144 0.116-0.26 0.26-0.26h1.301c0.144 0 0.26 0.117 0.26 0.26v1.301zM11.938 10.626c0-0.34-0.177-0.781-0.52-0.781h-1.301c-0.344 0-0.513 0.472-0.513 0.812l-0.007 2.311 2.342-1.821v-0.521h-0.001z"/>
</svg>
