<?xml version="1.0" encoding="utf-8"?>
<!-- Generated by IcoMoon.io -->
<!DOCTYPE svg PUBLIC "-//W3C//DTD SVG 1.1//EN" "http://www.w3.org/Graphics/SVG/1.1/DTD/svg11.dtd">
<svg version="1.1" xmlns="http://www.w3.org/2000/svg" xmlns:xlink="http://www.w3.org/1999/xlink" width="32" height="32" viewBox="0 0 32 32"><svg xmlns="http://www.w3.org/2000/svg" id="icon_xinfang" width="32" height="32" viewBox="0 0 32 32" x="0" y="0">
<path fill="#ff7326" d="M30 16c0 7.732-6.268 14-14 14s-14-6.268-14-14c0-7.732 6.268-14 14-14s14 6.268 14 14z"/>
<path fill="#fff" d="M15.996 17.42c0-0.785 0.636-1.422 1.419-1.422h3.665c0.784 0 1.402 0.363 1.402 1.16v4.874c0 0.486-0.036 0.705-0.841 0.705l-4.207 0.033c-0.781 0-1.414-0.63-1.414-1.406l-0.024-3.944z"/>
<path fill="#ff7326" d="M17.295 20.608c0-0.401 0.059-0.458 0.459-0.458h2.196c0.401 0 0.459 0.057 0.459 0.458v2.445h-3.114v-2.445z"/>
<path fill="#fff" d="M20.794 14.558c-0.016 0.064-0.071 0.106-0.137 0.106s-0.121-0.043-0.137-0.106l-0.42-1.666c-0.011-0.045-0.041-0.079-0.085-0.097l-1.047-0.414c-0.055-0.022-0.089-0.072-0.089-0.131s0.034-0.109 0.089-0.131l1.047-0.414c0.044-0.017 0.074-0.051 0.085-0.097l0.419-1.666c0.016-0.064 0.071-0.107 0.137-0.107s0.121 0.043 0.137 0.107l0.419 1.666c0.011 0.045 0.041 0.079 0.085 0.097l1.047 0.414c0.055 0.022 0.089 0.072 0.089 0.131s-0.034 0.109-0.089 0.131l-1.047 0.414c-0.044 0.017-0.073 0.051-0.085 0.097l-0.418 1.666z"/>
<path fill="#fff" d="M9.516 12.73c0-0.777 0.076-1.251 0.896-1.665l6.128-2.074c0.781 0 0.758 0.119 0.758 0.893v12.854h-7.17c0 0-0.581-0.125-0.609-0.516s-0.003-9.492-0.003-9.492z"/>
<path fill="#ff7326" d="M11.423 14.963h4.227c0.193 0 0.349 0.156 0.349 0.349v0.079c0 0.193-0.156 0.349-0.349 0.349h-4.227c-0.193 0-0.349-0.156-0.349-0.349v-0.079c0-0.193 0.156-0.349 0.349-0.349z"/>
<path fill="#ff7326" d="M11.422 13.407h4.229c0.192 0 0.348 0.156 0.348 0.348v0.081c0 0.192-0.156 0.348-0.348 0.348h-4.229c-0.192 0-0.348-0.156-0.348-0.348v-0.081c0-0.192 0.156-0.348 0.348-0.348z"/>
<path fill="#ff7326" d="M11.426 16.519h4.221c0.195 0 0.352 0.158 0.352 0.352v0.073c0 0.195-0.158 0.352-0.352 0.352h-4.221c-0.195 0-0.352-0.158-0.352-0.352v-0.073c0-0.195 0.158-0.352 0.352-0.352z"/>
</svg>
