<?xml version="1.0" encoding="utf-8"?>
<!-- Generated by IcoMoon.io -->
<!DOCTYPE svg PUBLIC "-//W3C//DTD SVG 1.1//EN" "http://www.w3.org/Graphics/SVG/1.1/DTD/svg11.dtd">
<svg version="1.1" xmlns="http://www.w3.org/2000/svg" xmlns:xlink="http://www.w3.org/1999/xlink" width="32" height="32" viewBox="0 0 32 32"><svg xmlns="http://www.w3.org/2000/svg" id="icon_kefu" width="32" height="32" viewBox="0 0 32 32" x="0" y="0">
<path fill="#ccefe0" d="M14.4 17.6c0 0-2.893 1.067-4.8 1.067 1.067-1.358 2.133-3.2 2.133-3.2l2.667 2.133z"/>
<path fill="#ccefe0" d="M16 8c2.945 0 5.333 2.388 5.333 5.333s-2.388 5.333-5.333 5.333-5.333-2.388-5.333-5.333c0-2.945 2.388-5.333 5.333-5.333z"/>
<path fill="#394043" d="M24.533 2.667c0.294 0 0.533 0.239 0.533 0.533v25.6c0 0.294-0.239 0.533-0.533 0.533h-17.067c-0.294 0-0.533-0.239-0.533-0.533v-25.6c0-0.294 0.239-0.533 0.533-0.533h17.067zM24.533 1.067h-17.067c-1.179 0-2.133 0.956-2.133 2.133v25.6c0 1.178 0.955 2.133 2.133 2.133h17.067c1.179 0 2.133-0.955 2.133-2.133v-25.6c0-1.178-0.955-2.133-2.133-2.133v0z"/>
<path fill="#394043" d="M5.333 23.467h21.333v1.6h-21.333v-1.6z"/>
<path fill="#394043" d="M16 26.133c0.589 0 1.067 0.478 1.067 1.067s-0.478 1.067-1.067 1.067c-0.589 0-1.067-0.478-1.067-1.067s0.478-1.067 1.067-1.067z"/>
</svg>

