<?xml version="1.0" encoding="utf-8"?>
<!-- Generated by IcoMoon.io -->
<!DOCTYPE svg PUBLIC "-//W3C//DTD SVG 1.1//EN" "http://www.w3.org/Graphics/SVG/1.1/DTD/svg11.dtd">
<svg version="1.1" xmlns="http://www.w3.org/2000/svg" xmlns:xlink="http://www.w3.org/1999/xlink" width="32" height="32" viewBox="0 0 32 32">
<svg xmlns="http://www.w3.org/2000/svg" id="icon_ditie" width="32" height="32" viewBox="0 0 32 32" x="0" y="0">
<path fill="#649cf1" d="M30 16c0 7.732-6.268 14-14 14s-14-6.268-14-14c0-7.732 6.268-14 14-14s14 6.268 14 14z"/>
<path fill="#fff" d="M10.296 21.185h11.407c0.43 0 0.778 0.348 0.778 0.778s-0.348 0.778-0.778 0.778h-11.407c-0.43 0-0.778-0.348-0.778-0.778s0.349-0.778 0.778-0.778z"/>
<path fill="#649cf1" d="M16 21.185c0.43 0 0.778 0.348 0.778 0.778s-0.348 0.778-0.778 0.778-0.778-0.348-0.778-0.778c0-0.43 0.348-0.778 0.778-0.778z"/>
<path fill="#fff" d="M16 22.991c-0.567 0-1.028-0.461-1.028-1.028s0.461-1.028 1.028-1.028c0.567 0 1.028 0.461 1.028 1.028s-0.461 1.028-1.028 1.028zM16 21.435c-0.291 0-0.528 0.237-0.528 0.528s0.237 0.528 0.528 0.528c0.292 0 0.528-0.237 0.528-0.528s-0.236-0.528-0.528-0.528z"/>
<path fill="#fff" d="M20.328 15.589h0.079l-4.407 5.596-4.407-5.596h0.079c-0.54-0.803-0.857-1.764-0.857-2.798 0-2.81 2.321-5.087 5.185-5.087s5.185 2.278 5.185 5.087c0 1.034-0.316 1.995-0.857 2.798z"/>
<path fill="#649cf1" d="M16.935 15.741c0.365 0 0.621-0.342 0.621-0.706l0.259-1.629h0.416c0.232 0 0.313-0.177 0.337-0.232 0.034-0.078 0.060-0.263-0.143-0.478l-1.965-1.94c-0.122-0.129-0.285-0.2-0.46-0.2s-0.338 0.071-0.46 0.2l-1.965 1.94c-0.203 0.215-0.177 0.4-0.143 0.478 0.024 0.055 0.105 0.232 0.337 0.232h0.417l0.259 1.629c0 0.363 0.257 0.706 0.621 0.706 0 0 1.869 0 1.869 0z"/>
</svg>
