55<?xml version="1.0" encoding="utf-8"?>
<!-- Generated by IcoMoon.io -->
<!DOCTYPE svg PUBLIC "-//W3C//DTD SVG 1.1//EN" "http://www.w3.org/Graphics/SVG/1.1/DTD/svg11.dtd">
<svg version="1.1" xmlns="http://www.w3.org/2000/svg" xmlns:xlink="http://www.w3.org/1999/xlink" width="32" height="32" viewBox="0 0 32 32">
<svg xmlns="http://www.w3.org/2000/svg" id="icon_ershoufang" width="32" height="32" viewBox="0 0 32 32" x="0" y="0">
<path fill="#00ae66" d="M30 16c0 7.732-6.268 14-14 14s-14-6.268-14-14c0-7.732 6.268-14 14-14s14 6.268 14 14z"/>
<path fill="#fff" d="M17.037 23l-0.014-3.176c0-0.251-0.145-0.446-0.395-0.446l-2.138-0.008c-0.252 0-0.307 0.203-0.307 0.454l0.002 3.176-3.706 0.002c-0.402-0.032-0.442-0.403-0.442-0.78v-5.185h-1.296c0 0-0.716-0.035-0.406-0.632l6.582-7.194c0.158-0.162 0.351-0.243 0.578-0.243s0.42 0.081 0.578 0.243l6.581 7.193c0.642 0.658-1.727 0.633-1.727 0.633v4.926c0 0.883-0.020 1.039-0.909 1.039l-2.981-0.002z"/>
<path fill="#fff" d="M20.078 9.943c2.101 0 3.804 1.722 3.804 3.845s-1.703 3.845-3.804 3.845-3.804-1.722-3.804-3.845c0-2.124 1.703-3.845 3.804-3.845z"/>
<path fill="#00ae66" d="M20.078 18.133c-2.373 0-4.304-1.949-4.304-4.345s1.931-4.345 4.304-4.345 4.304 1.949 4.304 4.345c0 2.396-1.931 4.345-4.304 4.345zM20.078 10.443c-1.822 0-3.305 1.5-3.305 3.345 0 1.844 1.482 3.345 3.305 3.345 1.821 0 3.304-1.5 3.304-3.345s-1.483-3.345-3.304-3.345z"/>
<path fill="#23c5a3" d="M18.129 13.234c0.276 0 0.5 0.226 0.5 0.506s-0.224 0.506-0.5 0.506-0.5-0.226-0.5-0.506c-0.001-0.279 0.223-0.506 0.5-0.506z"/>
<path fill="#23c5a3" d="M22.032 13.234c0.276 0 0.5 0.226 0.5 0.506s-0.224 0.506-0.5 0.506-0.5-0.226-0.5-0.506c0-0.279 0.224-0.506 0.5-0.506z"/>
<path fill="#23c5a3" d="M20.080 15.51c1.129 0.007 1.2-0.602 1.401-0.607s0.199 0.009 0.2 0.202c0.001 0.194-0.605 0.81-1.602 0.809-0.997 0-1.603-0.603-1.602-0.809s0.004-0.201 0.2-0.202c0.198-0.001 0.274 0.601 1.403 0.607z"/>
</svg>
