<?xml version="1.0" encoding="utf-8"?>
<!-- Generated by IcoMoon.io -->
<!DOCTYPE svg PUBLIC "-//W3C//DTD SVG 1.1//EN" "http://www.w3.org/Graphics/SVG/1.1/DTD/svg11.dtd">
<svg version="1.1" xmlns="http://www.w3.org/2000/svg" xmlns:xlink="http://www.w3.org/1999/xlink" width="32" height="32" viewBox="0 0 32 32"><svg xmlns="http://www.w3.org/2000/svg" id="icon_haiwai" width="32" height="32" viewBox="0 0 32 32" x="0" y="0">
<path fill="#def6f1" d="M16 2.074c7.732 0 14 6.268 14 14s-6.268 14-14 14-14-6.268-14-14 6.268-14 14-14z"/>
<path fill="#00ae66" d="M24.037 12.301c-0.043 0-0.087-0.007-0.129-0.023-0.044-0.016-1.072-0.402-2.085-1.527-0.139-0.154-0.127-0.391 0.027-0.53 0.152-0.138 0.391-0.125 0.529 0.028 0.882 0.979 1.778 1.322 1.787 1.325 0.194 0.072 0.293 0.288 0.221 0.481-0.055 0.152-0.198 0.246-0.35 0.246z"/>
<path fill="#00ae66" d="M16 13.856c-2.316 0-4.020-2.083-4.935-3.202-0.131-0.16-0.108-0.396 0.053-0.527 0.16-0.131 0.396-0.108 0.527 0.053 0.837 1.023 2.395 2.927 4.355 2.927 1.686 0 3.146-1.531 4.214-2.648l0.222-0.232c0.145-0.149 0.382-0.154 0.53-0.010 0.149 0.144 0.154 0.381 0.011 0.53l-0.22 0.229c-1.161 1.215-2.75 2.88-4.757 2.88zM7.445 12.301c-0.144 0-0.281-0.083-0.343-0.224-0.083-0.189 0.002-0.411 0.191-0.495 0.011-0.004 1.052-0.473 1.947-1.463 0.14-0.155 0.376-0.166 0.53-0.027s0.166 0.376 0.027 0.53c-1.008 1.115-2.153 1.626-2.202 1.647s-0.1 0.032-0.15 0.032z"/>
<path fill="#def6f1" d="M20.407 16.333h1.815v3.111h-1.815v-3.111z"/>
<path fill="#00ae66" d="M20.907 22.078h-1v-11.707c0-0.705 0.496-1.278 1.105-1.278h0.604c0.609 0 1.105 0.573 1.105 1.278v10.889h-1v-10.889c0-0.168-0.080-0.268-0.111-0.279l-0.599 0.001c-0.025 0.010-0.105 0.11-0.105 0.278v11.707h0.001z"/>
<path fill="#00ae66" d="M7.574 17.37h16.852c0.215 0 0.389 0.174 0.389 0.389s-0.174 0.389-0.389 0.389h-16.852c-0.215 0-0.389-0.174-0.389-0.389 0-0.214 0.174-0.389 0.389-0.389z"/>
<path fill="#00ae66" d="M19.37 22.814c-0.010 0-0.019 0.001-0.029 0.001-0.859 0-1.443-0.538-1.879-1.010-0.182-0.135-0.377-0.22-0.673-0.22-0.468 0-0.686 0.197-0.987 0.469-0.35 0.316-0.785 0.708-1.62 0.708-0.836 0-1.27-0.392-1.619-0.708-0.302-0.273-0.52-0.469-0.987-0.469-0.461 0-0.678 0.205-0.979 0.489-0.35 0.33-0.784 0.741-1.625 0.741-0.972 0-1.592-0.689-2.044-1.191l0.696-0.541c0.454 0.503 0.841 0.889 1.348 0.889 0.46 0 0.677-0.205 0.977-0.488 0.35-0.33 0.785-0.741 1.627-0.741 0.836 0 1.271 0.393 1.62 0.708 0.302 0.273 0.519 0.469 0.986 0.469s0.686-0.197 0.987-0.469c0.35-0.316 0.785-0.708 1.62-0.708 0.525 0 0.892 0.16 1.179 0.36l0.025-0.019c0.038 0.042 0.075 0.083 0.112 0.123 0.114 0.091 0.216 0.187 0.311 0.276 0.295 0.278 0.511 0.48 0.954 0.489 0.44-0.009 0.655-0.21 0.948-0.487 0.102-0.096 0.212-0.2 0.337-0.298 0.031-0.034 0.062-0.068 0.093-0.102l0.022 0.017c0.286-0.2 0.652-0.358 1.175-0.358 0.836 0 1.271 0.393 1.62 0.708 0.302 0.273 0.519 0.469 0.986 0.469s0.686-0.197 0.987-0.469l0.633 0.605c-0.35 0.316-0.785 0.708-1.62 0.708s-1.27-0.392-1.619-0.708c-0.302-0.273-0.52-0.469-0.987-0.469-0.284 0-0.475 0.078-0.651 0.204-0.437 0.476-1.023 1.026-1.895 1.026-0.010-0.003-0.019-0.004-0.029-0.004z"/>
<path fill="#00ae66" d="M18.981 14.519c0.215 0 0.389 0.174 0.389 0.389v2.333c0 0.215-0.174 0.389-0.389 0.389s-0.389-0.174-0.389-0.389v-2.333c0.001-0.215 0.175-0.389 0.389-0.389z"/>
<path fill="#00ae66" d="M14.315 15.815c0.215 0 0.389 0.174 0.389 0.389v1.037c0 0.215-0.174 0.389-0.389 0.389s-0.389-0.174-0.389-0.389v-1.037c0-0.215 0.174-0.389 0.389-0.389z"/>
<path fill="#00ae66" d="M17.159 15.815c0.215 0 0.389 0.174 0.389 0.389v1.037c0 0.215-0.174 0.389-0.389 0.389s-0.389-0.174-0.389-0.389v-1.037c0-0.215 0.174-0.389 0.389-0.389z"/>
<path fill="#00ae66" d="M12.5 14.519c0.215 0 0.389 0.174 0.389 0.389v2.333c0 0.215-0.174 0.389-0.389 0.389s-0.389-0.174-0.389-0.389v-2.333c0-0.215 0.174-0.389 0.389-0.389z"/>
<path fill="#00ae66" d="M9.259 22.604c-0.276 0-0.5-0.224-0.5-0.5v-11.733c0-0.705 0.496-1.278 1.105-1.278h0.605c0.609 0 1.105 0.573 1.105 1.278v10.376c0 0.276-0.224 0.5-0.5 0.5s-0.5-0.224-0.5-0.5v-10.376c0-0.168-0.079-0.268-0.111-0.279l-0.599 0.001c-0.026 0.010-0.105 0.11-0.105 0.278v11.734c0 0.276-0.223 0.499-0.5 0.499z"/>
</svg>
