<?xml version="1.0" encoding="utf-8"?>
<!-- Generated by IcoMoon.io -->
<!DOCTYPE svg PUBLIC "-//W3C//DTD SVG 1.1//EN" "http://www.w3.org/Graphics/SVG/1.1/DTD/svg11.dtd">
<svg version="1.1" xmlns="http://www.w3.org/2000/svg" xmlns:xlink="http://www.w3.org/1999/xlink" width="32" height="32" viewBox="0 0 32 32"><svg xmlns="http://www.w3.org/2000/svg" id="icon_xiaoqu" width="32" height="32" viewBox="0 0 32 32" x="0" y="0">
<path fill-rule="evenodd" clip-rule="evenodd" fill="#E9F1FD" d="M16,2.067c7.732,0,14,6.238,14,13.933s-6.268,13.933-14,13.933   C8.268,29.933,2,23.695,2,16S8.268,2.067,16,2.067z"/>
<path fill="#649CF1" d="M15.809,11.778v8.673h-3.994v-7.627L15.809,11.778 M16.583,10.775l-5.542,1.451v8.998h5.542V10.775   L16.583,10.775z"/>
<path fill-rule="evenodd" clip-rule="evenodd" fill="#649CF1" d="M13.667,13.968h0.875v6.386h-0.875V13.968z"/>
<path fill="#649CF1" d="M20.184,11.778v8.657l-3.6-0.071v-7.642L20.184,11.778 M20.958,10.775l-5.148,1.349v8.998l5.148,0.102   V10.775L20.958,10.775z"/>
<path fill-rule="evenodd" clip-rule="evenodd" fill="#649CF1" d="M18.042,13.968h0.875v6.386h-0.875V13.968z"/>
</svg>
