<?xml version="1.0" encoding="utf-8"?>
<!-- Generated by IcoMoon.io -->
<!DOCTYPE svg PUBLIC "-//W3C//DTD SVG 1.1//EN" "http://www.w3.org/Graphics/SVG/1.1/DTD/svg11.dtd">
<svg version="1.1" xmlns="http://www.w3.org/2000/svg" xmlns:xlink="http://www.w3.org/1999/xlink" width="32" height="32" viewBox="0 0 32 32">
<svg id="icon_agent" width="32" height="32" viewBox="0 0 32 32" x="0" y="0">
<path fill="#fff5e4" d="M30 16c0 7.732-6.268 14-14 14s-14-6.268-14-14c0-7.732 6.268-14 14-14s14 6.268 14 14z"/>
<path fill="#ffb52e" d="M16 18.074c0 0 0.104 0.006 0.182 0.016 0.132 0.018 0.212 0.033 0.335 0.065 0.027 0.007 0.068 0.033 0.057 0.105-0.043 0.28-0.135 0.461-0.185 0.579 0.040 0.173 0.175 0.83 0.194 0.919 0.043 0.196 0.153 0.746 0.193 1.096 0.007 0.063-0.040 0.114-0.056 0.131-0.308 0.352-0.641 0.433-0.717 0.458-0.008 0.001-0.003-3.369-0.003-3.369z"/>
<path fill="#ffb52e" d="M16 18.074c0 0-0.104 0.006-0.182 0.016-0.132 0.018-0.212 0.033-0.335 0.065-0.027 0.007-0.068 0.033-0.057 0.105 0.043 0.28 0.135 0.461 0.185 0.579-0.040 0.173-0.175 0.83-0.194 0.919-0.043 0.196-0.153 0.746-0.193 1.096-0.007 0.063 0.040 0.114 0.056 0.131 0.308 0.352 0.641 0.433 0.717 0.458 0.008 0.001 0.003-3.369 0.003-3.369z"/>
<path fill="#ffb52e" d="M16.068 18.247c-0.664 0-1.641-1.092-1.83-1.312l0.378-0.326c0.397 0.459 1.133 1.138 1.452 1.138 0.313 0 0.949-0.647 1.28-1.085l0.398 0.301c-0.162 0.215-1.005 1.284-1.678 1.284z"/>
<path fill="#ffb52e" d="M16 10.010c1.134 0 1.776 0.379 2.146 1.266 0.516 1.24 0.314 2.317 0.313 2.323l-0.243 1.221 0.226-0.065c-0.635 0.489-1.417 1.264-1.417 2.108 0 0.932 1.169 1.687 3.47 2.838 0.206 0.103 0.368 0.183 0.457 0.234 0.221 0.125 0.414 0.285 0.545 0.45l0.066 0.083 0.087 0.062c0.217 0.154 0.342 0.393 0.342 0.655 0 0.444-0.362 0.806-0.806 0.806-0.054 0-0.11-0.006-0.166-0.018l-0.125-0.026-0.126 0.017c-0.039 0.005-0.077 0.012-0.115 0.018l-0.041 0.008h-9.222c-0.019-0.001-0.036-0.005-0.053-0.008-0.041-0.007-0.082-0.013-0.125-0.018l-0.118-0.013-0.117 0.024c-0.053 0.011-0.108 0.016-0.164 0.016-0.444 0-0.806-0.362-0.806-0.806 0-0.261 0.124-0.5 0.341-0.654l0.086-0.061 0.066-0.083c0.131-0.165 0.325-0.325 0.547-0.451 0.081-0.046 0.222-0.119 0.402-0.213 2.702-1.408 3.525-2.076 3.525-2.859 0-0.854-0.799-1.636-1.438-2.124l0.24 0.068-0.235-1.203c-0.002-0.011-0.204-1.089 0.312-2.328 0.37-0.888 1.012-1.267 2.146-1.267zM16 9.26c-0.998 0-2.217 0.237-2.838 1.728s-0.355 2.765-0.355 2.765-0.095-0.027-0.217-0.027c-0.183 0-0.426 0.062-0.493 0.373-0.111 0.518 0.333 0.778 0.71 1.037s1.419 1.052 1.419 1.728-3.016 2.118-3.548 2.42c-0.284 0.162-0.561 0.381-0.764 0.637-0.395 0.282-0.655 0.742-0.655 1.265 0 0.86 0.697 1.556 1.556 1.556 0.108 0 0.213-0.011 0.314-0.032 0.087 0.010 0.162 0.031 0.259 0.031 0.962 0 4.612 0 4.612 0s3.925 0 4.612 0c0.094 0 0.169-0.021 0.253-0.033 0.103 0.022 0.21 0.034 0.32 0.034 0.86 0 1.556-0.697 1.556-1.556 0-0.524-0.261-0.984-0.657-1.266-0.203-0.255-0.479-0.475-0.762-0.636-0.532-0.303-3.548-1.642-3.548-2.42 0-0.669 1.042-1.469 1.419-1.728s0.821-0.519 0.71-1.037c-0.067-0.311-0.309-0.374-0.492-0.374-0.122 0-0.218 0.028-0.218 0.028s0.266-1.274-0.355-2.765c-0.621-1.49-1.84-1.728-2.838-1.728v0z"/>
</svg>
<path fill-rule="evenodd" clip-rule="evenodd" fill="#E9F1FD" d="M16,2.067c7.732,0,14,6.238,14,13.933s-6.268,13.933-14,13.933   C8.268,29.933,2,23.695,2,16S8.268,2.067,16,2.067z"/>
<path fill="#649CF1" d="M15.809,11.778v8.673h-3.994v-7.627L15.809,11.778 M16.583,10.775l-5.542,1.451v8.998h5.542V10.775   L16.583,10.775z"/>
<path fill-rule="evenodd" clip-rule="evenodd" fill="#649CF1" d="M13.667,13.968h0.875v6.386h-0.875V13.968z"/>
<path fill="#649CF1" d="M20.184,11.778v8.657l-3.6-0.071v-7.642L20.184,11.778 M20.958,10.775l-5.148,1.349v8.998l5.148,0.102   V10.775L20.958,10.775z"/>
<path fill-rule="evenodd" clip-rule="evenodd" fill="#649CF1" d="M18.042,13.968h0.875v6.386h-0.875V13.968z"/>
</svg>